<?xml version="1.0" encoding="UTF-8"?>
<svg width="69px" height="50px" viewBox="0 0 69 50" version="1.1" xmlns="http://www.w3.org/2000/svg" xmlns:xlink="http://www.w3.org/1999/xlink">
    <!-- Generator: Sketch 46.2 (44496) - http://www.bohemiancoding.com/sketch -->
    <title>”</title>
    <desc>Created with Sketch.</desc>
    <defs></defs>
    <g id="Homepages" stroke="none" stroke-width="1" fill="none" fill-rule="evenodd">
        <g id="Modern" transform="translate(-377.000000, -1209.000000)" fill="#46DEB1">
            <path d="M397.143406,1249.08772 C399.734968,1246.10525 401.295772,1243.06434 401.825864,1239.96491 C402.12036,1238.32748 402.267606,1236.92398 402.267606,1235.75439 C402.267606,1234.40935 402.12036,1233.29825 401.825864,1232.42105 C399.057605,1235.28656 395.553158,1236.7193 391.31242,1236.7193 C387.071682,1236.7193 383.626134,1235.49124 380.975672,1233.03509 C378.325211,1230.57894 377,1227.18716 377,1222.85965 C377,1218.76606 378.398834,1215.43276 381.196543,1212.85965 C383.994252,1210.28654 387.542872,1209 391.84251,1209 C397.732424,1209 402.031997,1211.10524 404.741357,1215.31579 C405.978239,1217.12866 406.95006,1219.36548 407.65685,1222.02632 C408.36364,1224.68715 408.717029,1227.42104 408.717029,1230.22807 C408.717029,1236.36845 407.126776,1241.98243 403.946223,1247.07018 C400.765669,1252.15792 396.024359,1256.13449 389.722151,1259 L388.043534,1255.75439 C391.518583,1254.29239 394.551844,1252.07019 397.143406,1249.08772 Z M434.426376,1249.08772 C437.017939,1246.10525 438.578743,1243.06434 439.108835,1239.96491 C439.403331,1238.32748 439.550576,1236.92398 439.550576,1235.75439 C439.550576,1234.40935 439.403331,1233.29825 439.108835,1232.42105 C436.340575,1235.28656 432.836129,1236.7193 428.595391,1236.7193 C424.354652,1236.7193 420.909104,1235.49124 418.258643,1233.03509 C415.608181,1230.57894 414.282971,1227.18716 414.282971,1222.85965 C414.282971,1218.76606 415.681804,1215.43276 418.479513,1212.85965 C421.277223,1210.28654 424.825843,1209 429.12548,1209 C435.015394,1209 439.314967,1211.10524 442.024328,1215.31579 C443.26121,1217.12866 444.233031,1219.36548 444.939821,1222.02632 C445.64661,1224.68715 446,1227.42104 446,1230.22807 C446,1236.36845 444.409747,1241.98243 441.229193,1247.07018 C438.04864,1252.15792 433.30733,1256.13449 427.005122,1259 L425.326504,1255.75439 C428.801554,1254.29239 431.834814,1252.07019 434.426376,1249.08772 Z" id="”"></path>
        </g>
    </g>
</svg>