<?xml version="1.0" encoding="UTF-8"?>
<svg width="62px" height="50px" viewBox="0 0 62 50" version="1.1" xmlns="http://www.w3.org/2000/svg" xmlns:xlink="http://www.w3.org/1999/xlink">
    <g id="Homepages" stroke="none" stroke-width="1" fill="none" fill-rule="evenodd">
        <g id="Business-Corporate" transform="translate(-1175.000000, -4251.000000)" fill="#46DEB1">
            <path d="M1220.69449,4262.77326 C1217.70025,4266.48774 1216.20315,4270.25063 1216.20315,4274.06202 C1216.20315,4275.67701 1216.39842,4277.06589 1216.78898,4278.22868 C1219.0672,4276.48449 1221.54067,4275.6124 1224.20945,4275.6124 C1227.85461,4275.6124 1230.89763,4276.75903 1233.33858,4279.05233 C1235.77954,4281.34562 1237,4284.43021 1237,4288.3062 C1237,4291.92379 1235.76327,4294.94379 1233.28976,4297.36628 C1230.81626,4299.78877 1227.78952,4301 1224.20945,4301 C1219.06717,4301 1215.12915,4298.90054 1212.39528,4294.70155 C1210.11705,4291.21316 1208.97795,4286.85274 1208.97795,4281.62016 C1208.97795,4274.96637 1210.6866,4269.00713 1214.10394,4263.74225 C1217.52128,4258.47736 1222.67976,4254.22999 1229.57953,4251 L1231.43465,4254.58527 C1227.26875,4256.32947 1223.68873,4259.05877 1220.69449,4262.77326 Z M1186.71654,4262.77326 C1183.72229,4266.48774 1182.2252,4270.25063 1182.2252,4274.06202 C1182.2252,4275.67701 1182.42047,4277.06589 1182.81102,4278.22868 C1185.02416,4276.48449 1187.49762,4275.6124 1190.2315,4275.6124 C1193.81157,4275.6124 1196.83831,4276.75903 1199.31181,4279.05233 C1201.78531,4281.34562 1203.02205,4284.43021 1203.02205,4288.3062 C1203.02205,4290.69639 1202.43623,4292.86046 1201.26457,4294.79845 C1200.09291,4296.73644 1198.53072,4298.25452 1196.57795,4299.35271 C1194.62519,4300.45091 1192.50972,4301 1190.2315,4301 C1185.08921,4301 1181.15119,4298.90054 1178.41732,4294.70155 C1176.1391,4291.21316 1175,4286.85274 1175,4281.62016 C1175,4274.96637 1176.70864,4269.00713 1180.12598,4263.74225 C1183.54332,4258.47736 1188.7018,4254.22999 1195.60157,4251 L1197.45669,4254.58527 C1193.29079,4256.32947 1189.71078,4259.05877 1186.71654,4262.77326 Z" id="“"></path>
        </g>
    </g>
</svg>
